<svg width="26" height="26" viewBox="0 0 26 26" fill="none" xmlns="http://www.w3.org/2000/svg">
<circle cx="13.5" cy="12.5" r="9.5" fill="#474747"/>
<path fill-rule="evenodd" clip-rule="evenodd" d="M13 0C5.82045 0 0 5.82045 0 13C0 20.1795 5.82045 26 13 26C20.1795 26 26 20.1795 26 13C26 5.82045 20.1795 0 13 0ZM17.381 10.2901C17.5963 10.0672 17.7154 9.76867 17.7127 9.4588C17.71 9.14893 17.5857 8.85251 17.3666 8.6334C17.1475 8.41428 16.8511 8.28999 16.5412 8.28729C16.2313 8.2846 15.9328 8.40372 15.7099 8.619L13 11.3289L10.2901 8.619C10.1811 8.50612 10.0507 8.41609 9.90648 8.35415C9.76229 8.29221 9.60721 8.25961 9.45029 8.25825C9.29337 8.25689 9.13775 8.28679 8.99251 8.34621C8.84727 8.40563 8.71532 8.49339 8.60435 8.60435C8.49339 8.71532 8.40563 8.84727 8.34621 8.99251C8.28679 9.13775 8.25689 9.29337 8.25825 9.45029C8.25961 9.60721 8.29221 9.76229 8.35415 9.90648C8.41609 10.0507 8.50612 10.1811 8.619 10.2901L11.3289 13L8.619 15.7099C8.50612 15.8189 8.41609 15.9493 8.35415 16.0935C8.29221 16.2377 8.25961 16.3928 8.25825 16.5497C8.25689 16.7066 8.28679 16.8622 8.34621 17.0075C8.40563 17.1527 8.49339 17.2847 8.60435 17.3956C8.71532 17.5066 8.84727 17.5944 8.99251 17.6538C9.13775 17.7132 9.29337 17.7431 9.45029 17.7418C9.60721 17.7404 9.76229 17.7078 9.90648 17.6458C10.0507 17.5839 10.1811 17.4939 10.2901 17.381L13 14.6711L15.7099 17.381C15.9328 17.5963 16.2313 17.7154 16.5412 17.7127C16.8511 17.71 17.1475 17.5857 17.3666 17.3666C17.5857 17.1475 17.71 16.8511 17.7127 16.5412C17.7154 16.2313 17.5963 15.9328 17.381 15.7099L14.6711 13L17.381 10.2901Z" fill="#EAEAEA"/>
</svg>
