<svg width="47" height="42" viewBox="0 0 47 42" fill="none" xmlns="http://www.w3.org/2000/svg">
<path d="M10.375 2V9.12893" stroke="#276A82" stroke-width="3.5" stroke-linecap="round" stroke-linejoin="round"/>
<path d="M29.2383 2V9.12893" stroke="#276A82" stroke-width="3.5" stroke-linecap="round" stroke-linejoin="round"/>
<path d="M11.2695 23.8291H14.8277" stroke="#276A82" stroke-width="3.5" stroke-linecap="round" stroke-linejoin="round"/>
<path d="M24.3235 39.5226H5.75688C4.75738 39.5226 3.79883 39.1256 3.09208 38.4188C2.38533 37.7121 1.98828 36.7535 1.98828 35.754V9.33305C1.98828 8.33355 2.38533 7.375 3.09208 6.66825C3.79883 5.9615 4.75738 5.56445 5.75688 5.56445H33.8549C34.8544 5.56445 35.8129 5.9615 36.5197 6.66825C37.2264 7.375 37.6235 8.33355 37.6235 9.33305V18.9838" stroke="#276A82" stroke-width="3.5" stroke-miterlimit="10" stroke-linecap="round"/>
<path d="M1.98828 16.1045H37.6235" stroke="#276A82" stroke-width="3.5" stroke-miterlimit="10"/>
<path d="M11.2695 32.2715H14.8277" stroke="#276A82" stroke-width="3.5" stroke-linecap="round" stroke-linejoin="round"/>
<path d="M38.281 39.9996H31.7362C31.3433 39.9955 30.9677 39.8371 30.6904 39.5586C30.4131 39.2802 30.2564 38.9039 30.2539 38.511V26.2285C30.2535 26.0317 30.292 25.8367 30.3671 25.6547C30.4422 25.4728 30.5526 25.3075 30.6917 25.1683C30.8309 25.0291 30.9962 24.9188 31.1782 24.8437C31.3601 24.7685 31.5551 24.7301 31.7519 24.7305H38.2967C38.694 24.7305 39.075 24.8883 39.356 25.1692C39.6369 25.4502 39.7947 25.8312 39.7947 26.2285V38.511L39.8293 39.9901L38.281 39.9996Z" stroke="#276A82" stroke-width="2.5" stroke-linecap="round" stroke-linejoin="round"/>
<path d="M41.2754 40H43.5145C43.9116 39.9992 44.2921 39.8411 44.5729 39.5604C44.8536 39.2796 45.0117 38.8991 45.0126 38.502V31.238C45.0117 30.8413 44.8535 30.4611 44.5727 30.1808C44.2918 29.9006 43.9113 29.7432 43.5145 29.7432H41.2754C41.0788 29.7428 40.8841 29.7811 40.7023 29.8561C40.5206 29.931 40.3554 30.041 40.2163 30.1799C40.0771 30.3187 39.9668 30.4837 39.8914 30.6653C39.8161 30.8468 39.7773 31.0415 39.7773 31.238V38.5114L39.8119 39.9906L41.2754 40Z" stroke="#276A82" stroke-width="2.5" stroke-linecap="round" stroke-linejoin="round"/>
</svg>
