<svg width="45" height="46" viewBox="0 0 45 46" fill="none" xmlns="http://www.w3.org/2000/svg">
<path d="M20.9129 17.3206C20.9129 15.532 19.4642 14.082 17.6772 14.082C15.8901 14.082 14.4414 15.532 14.4414 17.3206V17.8243C14.4414 19.6129 15.8901 21.0629 17.6772 21.0629C19.4642 21.0629 20.9129 19.6129 20.9129 17.8243V17.3206Z" stroke="#276A82" stroke-width="3.5" stroke-miterlimit="10"/>
<path d="M28.6656 14.9844L16.0547 31.321" stroke="#276A82" stroke-width="3.5" stroke-linecap="round" stroke-linejoin="round"/>
<path d="M30.5653 28.4983C30.5653 26.7097 29.1166 25.2598 27.3295 25.2598C25.5425 25.2598 24.0938 26.7097 24.0938 28.4983V29.0021C24.0938 30.7907 25.5425 32.2406 27.3295 32.2406C29.1166 32.2406 30.5653 30.7907 30.5653 29.0021V28.4983Z" stroke="#276A82" stroke-width="3.5" stroke-miterlimit="10"/>
<path d="M25.6677 4.61586C25.8262 5.12489 26.1049 5.58828 26.4803 5.96688C26.8557 6.34548 27.3166 6.62817 27.8243 6.79105C28.3319 6.95393 28.8713 6.99222 29.3969 6.90269C29.9225 6.81315 30.4188 6.59842 30.8438 6.27665V6.27665C31.4119 5.85819 32.0985 5.6315 32.804 5.62942C33.5096 5.62734 34.1975 5.84999 34.768 6.26508C35.3385 6.68018 35.762 7.26617 35.9772 7.93812C36.1923 8.61007 36.1879 9.33307 35.9646 10.0023V10.0023C35.7854 10.5088 35.7317 11.0512 35.8082 11.583C35.8847 12.1147 36.089 12.62 36.4036 13.0555C36.7182 13.491 37.1338 13.8436 37.6146 14.0832C38.0955 14.3228 38.6273 14.4422 39.1644 14.4311V14.4311C39.8683 14.4281 40.555 14.6489 41.1253 15.0615C41.6957 15.4741 42.1202 16.0572 42.3376 16.7267C42.555 17.3962 42.5541 18.1175 42.335 18.7865C42.1159 19.4555 41.6899 20.0375 41.1186 20.4487C40.6812 20.755 40.324 21.1622 40.0774 21.6359C39.8309 22.1095 39.7021 22.6356 39.7021 23.1696C39.7021 23.7036 39.8309 24.2297 40.0774 24.7034C40.324 25.1771 40.6812 25.5843 41.1186 25.8906V25.8906C41.6899 26.3017 42.1159 26.8838 42.335 27.5528C42.5541 28.2217 42.555 28.943 42.3376 29.6125C42.1202 30.282 41.6957 30.8652 41.1253 31.2778C40.555 31.6904 39.8683 31.9111 39.1644 31.9081V31.9081C38.6306 31.8987 38.1023 32.0181 37.6244 32.2562C37.1465 32.4943 36.7331 32.8441 36.4191 33.2759C36.1051 33.7078 35.8999 34.209 35.8208 34.737C35.7417 35.265 35.791 35.8043 35.9646 36.3092V36.3092C36.1861 36.9782 36.1891 37.7002 35.9732 38.3709C35.7573 39.0417 35.3337 39.6264 34.7636 40.0405C34.1936 40.4547 33.5066 40.6768 32.8019 40.6748C32.0973 40.6728 31.4115 40.4468 30.8438 40.0294V40.0294C30.4188 39.7076 29.9225 39.4929 29.3969 39.4034C28.8713 39.3138 28.3319 39.3521 27.8243 39.515C27.3166 39.6779 26.8557 39.9606 26.4803 40.3392C26.1049 40.7178 25.8262 41.1812 25.6677 41.6902V41.6902C25.4533 42.3609 25.0313 42.946 24.4626 43.3612C23.8939 43.7765 23.208 44.0002 22.5039 44.0002C21.7998 44.0002 21.1139 43.7765 20.5452 43.3612C19.9766 42.946 19.5545 42.3609 19.3401 41.6902C19.1816 41.1812 18.9029 40.7178 18.5275 40.3392C18.1522 39.9606 17.6912 39.6779 17.1835 39.515C16.6759 39.3521 16.1365 39.3138 15.6109 39.4034C15.0854 39.4929 14.5891 39.7076 14.164 40.0294C13.5963 40.4468 12.9105 40.6728 12.2059 40.6748C11.5013 40.6768 10.8143 40.4547 10.2442 40.0405C9.67411 39.6264 9.2505 39.0417 9.03462 38.3709C8.81873 37.7002 8.82175 36.9782 9.04323 36.3092V36.3092C9.21666 35.8048 9.26605 35.266 9.18721 34.7384C9.10837 34.2108 8.90362 33.71 8.59029 33.2783C8.27696 32.8465 7.86425 32.4966 7.38709 32.2581C6.90993 32.0197 6.38235 31.8996 5.84898 31.9081V31.9081C5.1431 31.914 4.45372 31.6948 3.88085 31.2823C3.30797 30.8699 2.88139 30.2856 2.66299 29.6144C2.44458 28.9431 2.4457 28.2197 2.6662 27.5492C2.88669 26.8786 3.31509 26.2957 3.88925 25.885V25.885C4.32668 25.5787 4.68382 25.1715 4.93039 24.6979C5.17697 24.2242 5.30572 23.6981 5.30572 23.1641C5.30572 22.6301 5.17697 22.104 4.93039 21.6303C4.68382 21.1567 4.32668 20.7494 3.88925 20.4432V20.4432C3.31986 20.0309 2.89593 19.4487 2.67846 18.7803C2.46099 18.1118 2.4612 17.3916 2.67906 16.7233C2.89691 16.0549 3.32118 15.4729 3.8908 15.061C4.46043 14.6492 5.14604 14.4286 5.84898 14.4311V14.4311C6.38564 14.4413 6.91676 14.3212 7.39688 14.0812C7.877 13.8413 8.29181 13.4885 8.6058 13.0532C8.91979 12.6178 9.1236 12.1129 9.19978 11.5816C9.27596 11.0502 9.22224 10.5084 9.04323 10.0023C8.82175 9.33342 8.81873 8.6114 9.03462 7.94065C9.2505 7.2699 9.67411 6.68518 10.2442 6.27103C10.8143 5.85688 11.5013 5.63475 12.2059 5.63675C12.9105 5.63876 13.5963 5.86479 14.164 6.28218V6.28218C14.5891 6.60396 15.0854 6.81869 15.6109 6.90822C16.1365 6.99776 16.6759 6.95946 17.1835 6.79658C17.6912 6.6337 18.1522 6.35102 18.5275 5.97242C18.9029 5.59381 19.1816 5.13042 19.3401 4.62139V4.62139C19.554 3.95053 19.9755 3.36498 20.5438 2.94927C21.1121 2.53357 21.7978 2.30921 22.5019 2.3086C23.206 2.30798 23.8921 2.53114 24.4611 2.94585C25.0302 3.36056 25.4527 3.94537 25.6677 4.61586V4.61586Z" stroke="#276A82" stroke-width="3.5" stroke-linecap="round" stroke-linejoin="round"/>
</svg>
