<svg width="41" height="44" viewBox="0 0 41 44" fill="none" xmlns="http://www.w3.org/2000/svg">
<g clip-path="url(#clip0_523_11683)">
<path d="M10.5069 32.4798H4.38573C4.0761 32.4812 3.76666 32.4641 3.45906 32.4286C3.2007 32.3999 2.94491 32.3514 2.69391 32.2835C2.51969 32.238 2.35341 32.1661 2.20082 32.0702C2.0818 31.9934 2.01379 31.908 2.01379 31.8142V22.8452L4.36023 20.4813C4.90403 19.936 5.20983 19.1963 5.21039 18.4247V15.5659C5.20798 14.7947 4.90246 14.0556 4.36023 13.5093L1.98828 11.0942V2.15939C1.98828 2.06552 2.05629 1.98018 2.17532 1.90337C2.33683 1.81099 2.51184 1.74475 2.69391 1.7071C2.94491 1.63924 3.2007 1.59074 3.45906 1.56202C3.76666 1.52652 4.0761 1.50942 4.38573 1.51082H36.6153C36.9277 1.50968 37.24 1.52678 37.5505 1.56202C37.8059 1.59161 38.0588 1.6401 38.3071 1.7071C38.4905 1.74893 38.6658 1.82102 38.8257 1.92044C38.9447 1.99725 39.0127 2.08258 39.0127 2.17645V11.0942L36.6408 13.4751C36.097 14.0204 35.7912 14.7602 35.7906 15.5318V18.3735C35.7904 18.7556 35.8654 19.134 36.0113 19.4869C36.1572 19.8399 36.3711 20.1604 36.6408 20.4301L39.0042 22.8111V31.8142C39.0042 31.908 38.9362 31.9934 38.8172 32.0702C38.6573 32.1696 38.482 32.2417 38.2986 32.2835C38.0503 32.3505 37.7974 32.399 37.5419 32.4286C37.2315 32.4638 36.9192 32.4809 36.6068 32.4798H30.4856" stroke="#276A82" stroke-width="3.5" stroke-miterlimit="10"/>
<path d="M20.505 42.5065C26.022 42.5065 30.4944 38.0171 30.4944 32.4793C30.4944 26.9415 26.022 22.4521 20.505 22.4521C14.988 22.4521 10.5156 26.9415 10.5156 32.4793C10.5156 38.0171 14.988 42.5065 20.505 42.5065Z" stroke="#276A82" stroke-width="3.5" stroke-linecap="round" stroke-linejoin="round"/>
<path d="M15.9375 32.4795H25.0597" stroke="#276A82" stroke-width="3.5" stroke-linecap="round" stroke-linejoin="round"/>
<path d="M20.5039 27.9053V37.0534" stroke="#276A82" stroke-width="3.5" stroke-linecap="round" stroke-linejoin="round"/>
</g>
<defs>
<clipPath id="clip0_523_11683">
<rect width="40" height="44" fill="white" transform="translate(0.5)"/>
</clipPath>
</defs>
</svg>
