<svg width="45" height="56" viewBox="0 0 45 56" fill="none" xmlns="http://www.w3.org/2000/svg">
<path d="M11.0876 43.2079H6.55041C5.47618 43.2079 4.44594 42.7812 3.68634 42.0216C2.92674 41.262 2.5 40.2317 2.5 39.1575V5.90002C2.50243 4.82653 2.92994 3.7977 3.68902 3.03863C4.44809 2.27955 5.47692 1.85204 6.55041 1.84961H24.2767C25.351 1.84961 26.3812 2.27635 27.1408 3.03595C27.9004 3.79555 28.3271 4.82579 28.3271 5.90002V34.6295" stroke="#276A82" stroke-width="3.5" stroke-linecap="round" stroke-linejoin="round"/>
<path d="M11.6328 11.4023V16.0773" stroke="#276A82" stroke-width="3.5" stroke-linecap="round" stroke-linejoin="round"/>
<path d="M11.6328 23.9473V28.6222" stroke="#276A82" stroke-width="3.5" stroke-linecap="round" stroke-linejoin="round"/>
<path d="M19.1953 11.4023V16.0773" stroke="#276A82" stroke-width="3.5" stroke-linecap="round" stroke-linejoin="round"/>
<path d="M19.1953 23.9473V28.6222" stroke="#276A82" stroke-width="3.5" stroke-linecap="round" stroke-linejoin="round"/>
<path d="M32.6816 43.2077H38.4496C38.9818 43.2089 39.5091 43.1049 40.001 42.9018C40.493 42.6987 40.94 42.4004 41.3163 42.024C41.6927 41.6477 41.991 41.2007 42.1941 40.7087C42.3973 40.2168 42.5012 39.6895 42.5 39.1573V19.4655C42.5 18.3912 42.0732 17.361 41.3136 16.6014C40.554 15.8418 39.5238 15.415 38.4496 15.415H32.3785C31.305 15.4175 30.2762 15.845 29.5171 16.6041C28.7581 17.3631 28.3306 18.392 28.3281 19.4655V34.6292" stroke="#276A82" stroke-width="3.5" stroke-linecap="round" stroke-linejoin="round"/>
<path d="M35.4141 23.9473V28.6222" stroke="#276A82" stroke-width="3.5" stroke-linecap="round" stroke-linejoin="round"/>
<path d="M21.8818 53.9999C27.842 53.9999 32.6737 49.1681 32.6737 43.2079C32.6737 37.2477 27.842 32.416 21.8818 32.416C15.9216 32.416 11.0898 37.2477 11.0898 43.2079C11.0898 49.1681 15.9216 53.9999 21.8818 53.9999Z" stroke="#276A82" stroke-width="3.5" stroke-linecap="round" stroke-linejoin="round"/>
<path d="M16.957 43.208H26.8121" stroke="#276A82" stroke-width="3.5" stroke-linecap="round" stroke-linejoin="round"/>
<path d="M21.8789 38.2852V48.1402" stroke="#276A82" stroke-width="3.5" stroke-linecap="round" stroke-linejoin="round"/>
</svg>
