<svg width="12" height="14" viewBox="0 0 12 14" fill="none" xmlns="http://www.w3.org/2000/svg">
<path d="M1.00278 11.1136C0.977994 11.5836 1.11967 12.0454 1.39697 12.3988C1.67427 12.7521 2.06474 12.9682 2.48337 13H9.06319C9.48092 12.9667 9.87012 12.75 10.1464 12.3969C10.4226 12.0437 10.5636 11.5826 10.5388 11.1136V5.42067C10.5458 5.10105 10.4827 4.78439 10.3549 4.49862C10.2271 4.21285 10.0386 3.96676 9.80599 3.78205L6.22247 1.15237C6.09311 1.05311 5.94004 1 5.78332 1C5.62659 1 5.47352 1.05311 5.34416 1.15237L1.75562 3.78205C1.52181 3.9662 1.33183 4.21188 1.20232 4.49757C1.07282 4.78325 1.00775 5.10021 1.01282 5.42067V11.1136H1.00278Z" stroke="#C7C7C7" stroke-width="1.5" stroke-miterlimit="10"/>
<path d="M7.07812 9.23828V10.6122" stroke="#C7C7C7" stroke-width="1.5" stroke-linecap="round" stroke-linejoin="round"/>
<path d="M4.46094 9.23828V10.6122" stroke="#C7C7C7" stroke-width="1.5" stroke-linecap="round" stroke-linejoin="round"/>
<path d="M7.07812 5.93848V7.31244" stroke="#C7C7C7" stroke-width="1.5" stroke-linecap="round" stroke-linejoin="round"/>
<path d="M4.46094 5.93848V7.31244" stroke="#C7C7C7" stroke-width="1.5" stroke-linecap="round" stroke-linejoin="round"/>
</svg>
