<svg width="137" height="32" viewBox="0 0 137 32" fill="none" xmlns="http://www.w3.org/2000/svg">
<path fill-rule="evenodd" clip-rule="evenodd" d="M17.512 1.35352C12.5208 1.35352 11.4885 5.29645 11.6967 7.20213C11.9044 9.08677 13.602 10.4391 15.3597 11.8395C17.0151 13.1583 18.7239 14.5196 19.2919 16.4081C20.0091 18.7924 20.0409 20.7674 18.9579 23.6086C22.1258 21.1752 25.9748 16.4905 25.9748 10.8125C25.9748 6.3505 23.284 1.35352 17.512 1.35352ZM17.9124 20.0357C17.9124 26.4092 12.8894 28.7891 12.6696 28.7891C12.6696 28.7891 1.57968 23.8731 0.135236 13.2849C-0.858089 5.98027 3.93647 1.9795 4.23577 2.00698C4.60013 2.04312 4.62905 2.29471 4.48446 2.60991C4.40788 2.78062 4.30075 2.99126 4.17529 3.23795C3.28702 4.98452 1.47981 8.53801 3.08629 12.52C4.65219 16.4109 8.52138 18.665 9.97594 18.665C11.4305 18.665 11.9568 17.1338 11.3597 15.4436C10.9701 14.3438 10.3042 13.4712 9.67305 12.6439L9.67304 12.6439C9.00636 11.7702 8.37838 10.9471 8.15557 9.9608C7.84904 8.61179 8.80766 7.04589 10.122 9.34485C10.8562 10.6288 12.0731 11.5481 13.3294 12.4972C15.5589 14.1814 17.9124 15.9593 17.9124 20.0357ZM5.68937 6.29952C3.70706 9.53975 3.70706 12.2277 3.70706 12.2277C3.38752 11.2676 2.92483 9.7147 3.29064 8.45823C3.87622 6.43399 5.3973 4.32299 6.35592 3.84296C6.47593 3.78223 6.62052 3.72728 6.7145 3.80825C6.97476 4.02514 7.02826 4.11045 5.68937 6.29952ZM5.23516 14.6756C5.22413 11.2088 6.81005 8.93943 7.57254 7.84836C7.80986 7.50876 7.96742 7.28331 7.97223 7.17142C7.9872 7.09465 7.97336 7.01505 7.93335 6.94783C7.89334 6.88062 7.82997 6.8305 7.75534 6.80706C7.67461 6.78941 7.591 6.78958 7.51034 6.80756C7.42968 6.82554 7.35391 6.86089 7.28832 6.91116C6.70997 7.28854 5.854 8.19656 5.19468 9.35616C4.21726 11.0782 4.14062 13.0663 4.14062 13.0663C4.14062 13.0663 4.63367 14.1522 5.23516 14.6756Z" fill="#276A82"/>
<path fill-rule="evenodd" clip-rule="evenodd" d="M70.3203 0H72.2419V12.5387L79.0086 6.01344H81.5042L75.673 11.6972L82.5294 21.0492H80.3606L74.3167 12.9306L72.2419 14.9143V21.0492H70.3203V0ZM39.7868 13.5317C39.6971 9.35166 43.3653 5.68345 47.5439 5.77309C51.7255 5.68345 55.3633 9.35166 55.2722 13.5317V21.0503H53.3492V17.8318C52.3559 19.8763 50.041 21.2889 47.5439 21.2889C43.3653 21.38 39.6971 17.7118 39.7868 13.5317ZM53.3781 13.5317C53.3781 10.2235 50.8232 7.60359 47.5743 7.60359C46.7989 7.60373 46.0312 7.75765 45.3157 8.05642C44.6002 8.3552 43.951 8.7929 43.4058 9.34421C42.8605 9.89552 42.43 10.5495 42.1391 11.2683C41.8483 11.987 41.7028 12.7564 41.7112 13.5317C41.7112 16.7792 44.3572 19.4599 47.5743 19.4599C50.8232 19.4555 53.3781 16.8442 53.3781 13.5317ZM32.6484 13.2301C32.6484 8.38779 35.0544 5.92256 38.8123 5.92256C38.9633 5.91274 39.115 5.92295 39.2634 5.95292V7.78631C39.1148 7.75775 38.9632 7.74803 38.8123 7.75739C36.1966 7.75739 34.5729 9.62114 34.5729 13.2301V21.048H32.6484V13.2301ZM59.2256 16.8995H57.3633C57.3633 19.6048 59.8039 21.2893 62.6263 21.282C65.7827 21.282 67.9183 19.719 67.9183 17.0427C67.9183 15.9973 67.7072 15.1847 67.256 14.5847C66.3538 13.4121 65.1812 13.0506 63.1078 12.4795L63.0212 12.4567C60.7937 11.8709 59.707 11.5851 59.5885 9.83349C59.5885 8.38905 60.8204 7.48681 62.5352 7.48681C64.25 7.48681 65.5427 8.38905 65.5427 9.86241H67.4035C67.4035 7.33789 65.3287 5.77344 62.5323 5.77344C59.7663 5.77344 57.6611 7.33789 57.6611 9.71203C57.7797 12.6602 59.4656 13.2313 62.2619 13.9832C64.6375 14.6468 65.8463 15.0358 65.9909 16.9603C65.9909 18.6129 64.7879 19.5759 62.6523 19.5759C60.6989 19.5759 59.2256 18.5536 59.2256 16.8995ZM90.2126 5.9541C86.394 5.9541 83.8984 8.38898 83.8984 13.2009V21.0492H86.8452V13.2009C86.8452 10.2238 88.0438 8.81118 90.2126 8.81118H90.5134V5.9541H90.2126ZM91.5563 13.5317C91.4653 9.35166 95.1335 5.68345 99.3135 5.77309C103.494 5.68345 107.131 9.35166 107.042 13.5317V21.0503H104.095V18.6733C103.372 20.1467 101.388 21.2889 99.3135 21.2889C95.1335 21.38 91.471 17.7118 91.5563 13.5317ZM104.125 13.5317C104.125 10.7947 102.081 8.63017 99.3439 8.63017C96.6068 8.63017 94.5031 10.799 94.5031 13.5317C94.5031 16.2645 96.6372 18.4347 99.3439 18.4347C102.051 18.4347 104.125 16.2659 104.125 13.5317ZM112.03 16.5381H109.203C109.203 19.5151 111.94 21.2892 115.098 21.2892C118.585 21.2892 120.991 19.6959 120.991 16.7795C120.991 15.7269 120.75 14.884 120.24 14.2536C119.217 13.0506 117.834 12.6891 115.639 12.2076C113.383 11.6972 112.391 11.3358 112.391 10.2239C112.391 9.14091 113.474 8.38905 114.948 8.38905C116.48 8.38905 117.683 9.17127 117.683 10.2832H120.514C120.514 7.48681 118.23 5.77344 115.011 5.77344C111.914 5.77344 109.449 7.54754 109.449 10.0128C109.449 11.035 109.689 11.8476 110.201 12.4187C111.162 13.6217 112.422 13.9528 114.59 14.4329C116.966 14.9447 118.049 15.3365 118.049 16.6581C118.049 17.8611 116.992 18.6433 115.157 18.6433C113.354 18.6433 112.03 17.8394 112.03 16.5381ZM123.438 0H126.384V11.7276L132.243 6.01344H136.002L130.233 11.758L136.998 21.0492H133.721L128.218 13.6217L126.384 15.3987V21.0521H123.438V0ZM34.2943 30.8824C35.9498 30.8824 37.2598 29.6549 37.2598 27.9993C37.2598 26.3438 35.9498 25.1162 34.2943 25.1162H32.6055V30.8824H34.2943ZM34.2943 25.8811C35.5218 25.8811 36.453 26.7804 36.453 27.9993C36.453 29.2182 35.516 30.1161 34.2943 30.1161H33.4123V25.8811H34.2943ZM38.4062 25.1162H39.2145V30.8824H38.4062V25.1162ZM42.6719 25.8984H44.2869V25.1162H40.25V25.8984H41.8651V30.8824H42.6719V25.8984ZM50.9856 30.8824H50.1773L47.9492 25.1162H48.8384L50.5735 29.6794L52.3086 25.1162H53.2094L50.9856 30.8824ZM54.9631 27.4716V25.8984H57.5497V25.1162H54.1562V30.8824H57.5497V30.1002H54.9631V28.2538H57.2374V27.4716H54.9631ZM61.9371 30.1002V30.8824H58.707V25.1162H59.5182V30.1002H61.9371ZM63.9972 30.8824H64.8011L67.0249 25.1162H66.1328L64.3977 29.6794L62.6627 25.1162H61.7734L63.9972 30.8824ZM70.9492 25.8984V27.4716H73.3884V28.2538H70.9492V30.1002H73.6964V30.8824H70.1424V29.4568H68.1933L67.2795 30.8824H66.3281L70.0021 25.1162H73.7007V25.8984H70.9492ZM70.1424 28.6745V26.3756L68.6965 28.6745H70.1424ZM76.7236 25.1162H74.8555L74.8569 30.8824H75.6637V28.7656H76.3722L77.5665 30.8824H78.434L77.1573 28.6904C77.5636 28.6016 77.9267 28.3752 78.1854 28.0496C78.4441 27.724 78.5825 27.3191 78.5772 26.9033C78.5772 25.8811 77.7458 25.1162 76.7236 25.1162ZM77.7704 26.9033C77.7704 27.5294 77.3496 28.0398 76.7236 28.0398H75.6695V25.8406H76.7236C76.8641 25.8343 77.0044 25.8575 77.1353 25.9089C77.2662 25.9603 77.3849 26.0386 77.4836 26.1389C77.5823 26.2391 77.6589 26.3589 77.7083 26.4906C77.7577 26.6223 77.7788 26.7629 77.7704 26.9033ZM80.5309 25.8984V27.4716H82.8038V28.2538H80.5309V30.1002H83.1176V30.8824H79.7227V25.1162H83.1176V25.8984H80.5309ZM84.1133 31.1591V31.5003C84.7148 31.4757 85.1934 31.2776 85.1934 30.6313V29.9229H84.3851V30.5157L84.3851 30.5423C84.3854 30.8356 84.3856 31.0791 84.1133 31.1591ZM93.8848 27.9993C93.8848 29.6549 92.5748 30.8824 90.9193 30.8824H89.2305V25.1162H90.9193C92.5748 25.1162 93.8848 26.3438 93.8848 27.9993ZM93.078 27.9993C93.078 26.7804 92.1468 25.8811 90.9193 25.8811H90.0373V30.1161H90.9193C92.1468 30.1161 93.078 29.2182 93.078 27.9993ZM95.8473 25.1162H95.0391V30.8824H95.8473V25.1162ZM101.706 30.8824H100.898L97.8498 26.5737V30.8824H97.043V25.1162H97.8498L100.898 29.4322V25.1162H101.706V30.8824ZM103.709 27.4716V25.8984H106.289V25.1162H102.895V30.8824H106.295V30.1002H103.709V28.2538H105.981V27.4716H103.709ZM113.114 30.8824H112.307L110.082 25.1162H110.973L112.708 29.6794L114.443 25.1162H115.338L113.114 30.8824ZM117.096 25.1162H116.289V30.8824H117.096V25.1162ZM121.518 30.1002V30.8824H118.289V25.1162H119.096V30.1002H121.518ZM123.924 28.1974L125.704 30.8824L126.61 30.8795L124.419 27.554L126.395 25.1162H125.473L123.479 27.4889V25.1162H122.672V30.8839H123.479V28.7006L123.924 28.1974ZM130.904 29.4821H128.383L127.848 30.8831H127.016L129.239 25.1169H130.048L132.271 30.8831H131.44L130.904 29.4821ZM130.632 28.7331L129.643 26.1956L128.654 28.7331H130.632ZM130.171 24.1684C130.171 24.2728 130.14 24.3748 130.082 24.4616C130.024 24.5484 129.941 24.6161 129.845 24.656C129.748 24.6959 129.642 24.7064 129.54 24.686C129.437 24.6657 129.343 24.6154 129.27 24.5416C129.196 24.4678 129.146 24.3738 129.125 24.2714C129.105 24.169 129.115 24.0629 129.155 23.9665C129.195 23.87 129.263 23.7876 129.35 23.7296C129.436 23.6716 129.538 23.6407 129.643 23.6407C129.712 23.6397 129.781 23.6527 129.846 23.6789C129.91 23.705 129.969 23.7439 130.018 23.7931C130.067 23.8423 130.106 23.9008 130.132 23.9653C130.159 24.0298 130.172 24.0989 130.171 24.1684ZM129.413 24.1684C129.413 24.2142 129.426 24.2591 129.451 24.2973C129.476 24.3356 129.512 24.3655 129.555 24.3832C129.597 24.4009 129.644 24.4057 129.688 24.3969C129.733 24.3882 129.775 24.3663 129.807 24.334C129.84 24.3017 129.862 24.2605 129.871 24.2155C129.88 24.1706 129.876 24.124 129.858 24.0817C129.841 24.0393 129.811 24.0031 129.773 23.9776C129.735 23.9521 129.69 23.9385 129.644 23.9385C129.614 23.9371 129.583 23.9421 129.554 23.9531C129.526 23.9641 129.5 23.981 129.478 24.0026C129.456 24.0242 129.439 24.0501 129.428 24.0787C129.417 24.1072 129.412 24.1378 129.413 24.1684ZM135.08 25.1162H133.219L133.225 30.8824H134.031V28.7656H134.74L135.934 30.8824H136.802L135.525 28.6904C135.929 28.5993 136.29 28.3719 136.546 28.0466C136.802 27.7212 136.939 27.3176 136.933 26.9033C136.933 25.8811 136.102 25.1162 135.08 25.1162ZM136.126 26.9033C136.126 27.5294 135.706 28.0398 135.08 28.0398H134.026V25.8406H135.08C135.22 25.8343 135.36 25.8575 135.491 25.9089C135.622 25.9603 135.741 26.0386 135.84 26.1389C135.938 26.2391 136.015 26.3589 136.064 26.4906C136.114 26.6223 136.135 26.7629 136.126 26.9033Z" fill="#276A82"/>
</svg>
