<svg width="44" height="46" viewBox="0 0 44 46" fill="none" xmlns="http://www.w3.org/2000/svg">
<path d="M21.0852 45.9099C21.451 45.9099 29.8104 41.9491 29.8104 31.3422C29.8104 20.7353 20.2358 19.4792 16.8453 13.5501C14.658 9.72406 13.0626 12.3301 13.5728 14.5751C14.2947 17.7707 17.572 19.9364 18.9051 23.6998C19.8989 26.5128 19.023 29.061 16.6023 29.061C14.1816 29.061 7.74233 25.3096 5.13631 18.8343C2.08513 11.2713 6.4333 4.63715 7.46319 2.34155C7.70382 1.81698 7.6557 1.39828 7.04931 1.33812C6.55121 1.2924 -1.42806 7.95062 0.225064 20.1072C2.62895 37.7285 21.0852 45.9099 21.0852 45.9099Z" fill="#276A82"/>
<path d="M6.16667 18.3491C6.16667 18.3491 6.16667 13.8758 9.4657 8.48327C11.6939 4.84014 11.6049 4.69817 11.1718 4.33722C11.0154 4.20247 10.7747 4.29391 10.575 4.39498C8.97963 5.19387 6.44821 8.70706 5.47366 12.0759C4.86487 14.1669 5.63488 16.7513 6.16667 18.3491Z" fill="#276A82"/>
<path d="M8.70828 22.4255C8.68422 14.8601 13.2297 10.7213 13.2634 9.9368C13.2883 9.80903 13.2653 9.67656 13.1987 9.5647C13.1321 9.45284 13.0266 9.36943 12.9025 9.33042C12.7681 9.30104 12.6289 9.30132 12.4947 9.33125C12.3605 9.36117 12.2344 9.42001 12.1252 9.50367C11.1627 10.1317 9.73818 11.6429 8.64091 13.5727C7.01425 16.4386 6.88672 19.7473 6.88672 19.7473C6.88672 19.7473 7.70726 21.5544 8.70828 22.4255Z" fill="#276A82"/>
<path d="M19.467 9.98541C19.1205 6.81391 20.8386 0.251953 29.1452 0.251953C38.7511 0.251953 43.2292 8.5681 43.2292 15.9939C43.2292 25.4434 36.8236 33.2398 31.5514 37.2896C33.3538 32.5613 33.3008 29.2743 32.1073 25.3063C30.1582 18.8261 20.1384 16.0757 19.467 9.98541Z" fill="#276A82"/>
</svg>
