<svg width="46" height="42" viewBox="0 0 46 42" fill="none" xmlns="http://www.w3.org/2000/svg">
<path d="M10.7539 2V9.12716" stroke="#276A82" stroke-width="3.5" stroke-linecap="round" stroke-linejoin="round"/>
<path d="M29.6133 2V9.12716" stroke="#276A82" stroke-width="3.5" stroke-linecap="round" stroke-linejoin="round"/>
<path d="M11.6484 23.8242H15.2057" stroke="#276A82" stroke-width="3.5" stroke-linecap="round" stroke-linejoin="round"/>
<path d="M24.7008 39.5132H6.13875C5.13951 39.5132 4.18119 39.1163 3.47462 38.4097C2.76804 37.7031 2.37109 36.7448 2.37109 35.7456V9.33114C2.37109 8.33189 2.76804 7.37357 3.47462 6.667C4.18119 5.96043 5.13951 5.56348 6.13875 5.56348H34.2298C35.2291 5.56348 36.1874 5.96043 36.8939 6.667C37.6005 7.37357 37.9975 8.33189 37.9975 9.33114V18.9795" stroke="#276A82" stroke-width="3.5" stroke-miterlimit="10" stroke-linecap="round"/>
<path d="M2.37109 16.1006H37.9975" stroke="#276A82" stroke-width="3.5" stroke-miterlimit="10"/>
<path d="M11.6484 32.2637H15.2057" stroke="#276A82" stroke-width="3.5" stroke-linecap="round" stroke-linejoin="round"/>
<path d="M33.2008 30.3738C33.2702 30.8988 33.4251 31.409 33.6592 31.884C33.7524 32.0573 33.8573 32.2241 33.9732 32.3832C34.4113 32.9701 34.9838 33.4432 35.6427 33.7629C36.3016 34.0825 37.0276 34.2392 37.7597 34.2199C39.9324 34.1258 41.1569 32.4146 41.3139 32.1885C41.7233 31.5843 41.9787 30.889 42.058 30.1634C42.2652 28.2796 41.2825 25.9091 39.1694 25.0488C38.5942 24.8229 37.9792 24.7155 37.3614 24.7333C36.7436 24.7512 36.1358 24.8937 35.5745 25.1524C33.1067 26.3958 33.1161 29.6579 33.2008 30.3738Z" stroke="#276A82" stroke-width="2.5" stroke-linecap="round" stroke-linejoin="round"/>
<path d="M35.8501 34.0254C35.8718 34.4864 35.7343 34.9409 35.4608 35.3127C34.7794 36.1604 33.5769 35.8213 32.5722 36.2891C31.8218 36.6345 30.9396 37.5262 30.5 40.0003H44.6287C44.2363 37.4697 43.3728 36.6031 42.6758 36.2891C41.7339 35.8715 40.6633 36.2546 39.8501 35.4697C39.5017 35.1072 39.2812 34.6408 39.2221 34.1416" stroke="#276A82" stroke-width="2.5" stroke-linecap="round" stroke-linejoin="round"/>
</svg>
