<svg width="18" height="15" viewBox="0 0 18 15" fill="none" xmlns="http://www.w3.org/2000/svg">
<path d="M15.4696 1.61133H2.53037C1.68517 1.61133 1 2.2965 1 3.1417V11.8571C1 12.7023 1.68517 13.3875 2.53037 13.3875H15.4696C16.3148 13.3875 17 12.7023 17 11.8571V3.1417C17 2.2965 16.3148 1.61133 15.4696 1.61133Z" stroke="#276A82" stroke-width="1.5" stroke-linecap="round" stroke-linejoin="round"/>
<path d="M1.76562 2.48392L7.76467 8.98798C7.91529 9.15393 8.09896 9.28654 8.30387 9.37728C8.50879 9.46803 8.73042 9.51491 8.95453 9.51491C9.17864 9.51491 9.40027 9.46803 9.60519 9.37728C9.8101 9.28654 9.99377 9.15393 10.1444 8.98798L16.2659 2.36914" stroke="#276A82" stroke-width="1.5" stroke-linecap="round" stroke-linejoin="round"/>
<path d="M1.33594 12.7758L5.62097 6.6543" stroke="#276A82" stroke-width="1.5" stroke-linecap="round" stroke-linejoin="round"/>
<path d="M16.6639 12.7758L12.3789 6.6543" stroke="#276A82" stroke-width="1.5" stroke-linecap="round" stroke-linejoin="round"/>
</svg>
