<svg width="17" height="18" viewBox="0 0 17 18" fill="none" xmlns="http://www.w3.org/2000/svg">
<path d="M3.8425 6.91536C3.91616 7.4633 4.0786 7.99558 4.32342 8.49129C4.4205 8.67482 4.53183 8.85047 4.65636 9.0166C5.1149 9.63152 5.7145 10.1272 6.40465 10.462C7.0948 10.7968 7.8553 10.9608 8.62208 10.9403C9.3576 10.8796 10.0706 10.6571 10.7101 10.2887C11.3497 9.92034 11.8999 9.41521 12.3214 8.80944C12.7556 8.17941 13.0299 7.45315 13.1205 6.6934C13.241 5.59605 13.0137 4.48858 12.4707 3.5274C11.9277 2.56622 11.0965 1.79992 10.0944 1.33672C9.49243 1.09794 8.84819 0.984001 8.20082 1.00181C7.55344 1.01961 6.91644 1.1688 6.32848 1.4403C3.74632 2.74248 3.75372 6.17549 3.8425 6.91536Z" stroke="#92ADB6" stroke-width="1.5" stroke-linecap="round" stroke-linejoin="round"/>
<path d="M6.61564 10.7334C6.63428 11.222 6.48549 11.7023 6.19391 12.0948C5.45404 12.9826 4.23325 12.6201 3.16783 13.1158C2.38356 13.4783 1.45872 14.4106 1 17.0001H15.8123C15.3979 14.3514 14.5101 13.4413 13.7702 13.1158C12.7788 12.6793 11.6616 13.0788 10.8107 12.2575C10.4479 11.8764 10.2171 11.3888 10.1522 10.8666" stroke="#92ADB6" stroke-width="1.5" stroke-linecap="round" stroke-linejoin="round"/>
<path d="M10.6863 12.0947L8.46672 14.048L6.19531 12.0947" stroke="#92ADB6" stroke-width="1.5" stroke-miterlimit="10"/>
<path d="M8.48047 13.8623V16.992" stroke="#92ADB6" stroke-width="1.5" stroke-miterlimit="10"/>
</svg>
