<svg width="14" height="19" viewBox="0 0 14 19" fill="none" xmlns="http://www.w3.org/2000/svg">
<path d="M1 7.47015C1 8.60907 1.38576 9.51837 2.75431 11.6768C4.03392 13.7036 5.43887 15.6484 6.96096 17.5C8.48306 15.6484 9.88801 13.7036 11.1676 11.6768C12.5362 9.51837 12.9403 8.60907 12.9403 7.47015C12.9403 5.88677 12.3113 4.36824 11.1917 3.24862C10.0721 2.129 8.55353 1.5 6.97015 1.5C5.38677 1.5 3.86824 2.129 2.74862 3.24862C1.629 4.36824 1 5.88677 1 7.47015V7.47015Z" stroke="#276A82" stroke-width="1.5" stroke-linecap="round" stroke-linejoin="round"/>
<path d="M6.96228 9.2605C8.09348 9.2605 9.0105 8.34348 9.0105 7.21228C9.0105 6.08108 8.09348 5.16406 6.96228 5.16406C5.83108 5.16406 4.91406 6.08108 4.91406 7.21228C4.91406 8.34348 5.83108 9.2605 6.96228 9.2605Z" stroke="#276A82" stroke-width="1.5" stroke-linecap="round" stroke-linejoin="round"/>
</svg>
