<svg width="85" height="91" viewBox="0 0 85 91" fill="none" xmlns="http://www.w3.org/2000/svg">
<path d="M18.0918 34.4247C18.4831 37.3356 19.346 40.1633 20.6466 42.7967C21.1623 43.7717 21.7537 44.7048 22.4153 45.5874C24.8512 48.8541 28.0365 51.4875 31.7029 53.266C35.3693 55.0445 39.4093 55.9158 43.4828 55.8067C47.3902 55.4842 51.178 54.3022 54.5754 52.3453C57.9728 50.3884 60.8958 47.705 63.1353 44.4868C65.4418 41.1399 66.8987 37.2817 67.3802 33.2456C68.0203 27.416 66.8128 21.5327 63.9282 16.4266C61.0437 11.3204 56.6279 7.24949 51.3045 4.78877C48.1064 3.52031 44.684 2.91501 41.2449 3.0096C37.8057 3.10419 34.4217 3.89671 31.2982 5.33904C17.5808 12.2567 17.6201 30.4942 18.0918 34.4247Z" stroke="#474747" stroke-width="6" stroke-linecap="round" stroke-linejoin="round"/>
<path d="M32.8325 54.707C32.9315 57.3026 32.1411 59.8541 30.5921 61.9392C26.6616 66.6558 20.1763 64.7298 14.5164 67.3632C10.35 69.2892 5.43691 74.2416 3 87.9984H81.6886C79.4875 73.9272 74.7709 69.0927 70.8404 67.3632C65.5736 65.0442 59.6385 67.1667 55.1184 62.8039C53.191 60.779 51.9647 58.1888 51.6203 55.4145" stroke="#474747" stroke-width="6" stroke-linecap="round" stroke-linejoin="round"/>
<path d="M54.4519 61.9414L42.6604 72.3179L30.5938 61.9414" stroke="#474747" stroke-width="6" stroke-miterlimit="10"/>
<path d="M42.7383 71.3301V87.9561" stroke="#474747" stroke-width="6" stroke-miterlimit="10"/>
</svg>
