<svg width="18" height="16" viewBox="0 0 18 16" fill="none" xmlns="http://www.w3.org/2000/svg">
<path d="M15.6056 8.2408C15.6059 8.56963 15.7358 8.88508 15.9671 9.11879L17 10.1517V14.0045C16.9954 14.0271 16.9856 14.0482 16.9712 14.0662C16.9568 14.0841 16.9384 14.0984 16.9174 14.1078C16.853 14.1548 16.7789 14.1866 16.7005 14.2008C16.5931 14.2342 16.4821 14.255 16.3699 14.2628C16.2359 14.2736 16.1011 14.2736 15.9671 14.2628H2.07424C1.94018 14.2736 1.80546 14.2736 1.6714 14.2628C1.54482 14.2551 1.41979 14.2307 1.29955 14.1904C1.22114 14.1763 1.14698 14.1445 1.08263 14.0975C1.06164 14.0881 1.04319 14.0738 1.02881 14.0558C1.01444 14.0379 1.00456 14.0167 1 13.9942V10.1414L2.03292 9.10846C2.26237 8.87352 2.39194 8.55886 2.39445 8.23047V7.01162C2.39194 6.68323 2.26237 6.36857 2.03292 6.13363L1 5.10071V1.23757C1.01122 1.21385 1.02868 1.19362 1.05052 1.17907C1.07235 1.16451 1.09774 1.15617 1.12395 1.15494L1.29955 1.06198L1.6714 1H2.07424H15.9567H16.3596L16.6901 1.06198L16.907 1.15494C16.9293 1.16529 16.9486 1.18116 16.9631 1.20104C16.9775 1.22092 16.9867 1.24416 16.9897 1.26856V5.11104L15.9567 6.14396C15.7267 6.38267 15.5972 6.70074 15.5952 7.03228L15.6056 8.2408Z" stroke="#92ADB6" stroke-width="1.5" stroke-miterlimit="10"/>
<path d="M6.71484 8.89045V6.37012" stroke="#92ADB6" stroke-width="1.5" stroke-linecap="round" stroke-linejoin="round"/>
<path d="M11.3164 8.89045V6.37012" stroke="#92ADB6" stroke-width="1.5" stroke-linecap="round" stroke-linejoin="round"/>
</svg>
