<svg width="18" height="19" viewBox="0 0 18 19" fill="none" xmlns="http://www.w3.org/2000/svg">
<path d="M4.99065 1.9667L6.43715 3.42318C6.72989 3.72997 6.90531 4.13001 6.93267 4.55317C6.96003 4.97634 6.83759 5.39564 6.58679 5.73757V5.73757C6.32255 6.0835 6.19218 6.51325 6.21967 6.94768C6.24717 7.38212 6.43068 7.79199 6.73643 8.10185L8.27271 9.64811L10.2679 11.6433C10.5747 11.9566 10.9855 12.1468 11.4229 12.178C11.8602 12.2092 12.2939 12.0794 12.6421 11.8129L12.702 11.763C13.0413 11.5056 13.4607 11.3765 13.886 11.3984C14.3114 11.4203 14.7153 11.5918 15.0264 11.8827L16.413 13.1596C16.598 13.3297 16.7457 13.5363 16.8468 13.7664C16.9478 13.9965 17 14.2451 17 14.4964C17 14.7477 16.9478 14.9963 16.8468 15.2264C16.7457 15.4565 16.598 15.6631 16.413 15.8331L15.0264 17.0801C14.739 17.3336 14.3791 17.4903 13.9978 17.5279C13.6164 17.5655 13.2329 17.4821 12.9015 17.2896L8.50215 14.7557C6.41101 13.537 4.7063 11.7527 3.58406 9.6082L1.20981 5.04924C1.03141 4.71335 0.964264 4.3295 1.01805 3.953C1.07183 3.57651 1.24377 3.22681 1.50908 2.95431L2.50667 1.95672C2.8422 1.63795 3.28785 1.46105 3.75066 1.46291C4.21347 1.46476 4.65769 1.64525 4.99065 1.9667V1.9667Z" stroke="#276A82" stroke-width="1.5" stroke-miterlimit="10"/>
</svg>
