<svg width="20" height="19" viewBox="0 0 20 19" fill="none" xmlns="http://www.w3.org/2000/svg">
<path d="M11.8857 5.93553V2.37736C11.884 2.19314 11.8449 2.01119 11.7709 1.84249C11.6302 1.5123 11.3674 1.24916 11.0375 1.1079C10.8683 1.03633 10.6863 0.999629 10.5026 1.00001H2.37736C2.19361 0.999502 2.01167 1.0362 1.84249 1.1079C1.51195 1.24871 1.24871 1.51195 1.1079 1.84249C1.0362 2.01167 0.999502 2.19361 1.00001 2.37736V16.6169C0.999629 16.8006 1.03633 16.9826 1.1079 17.1518C1.24916 17.4817 1.5123 17.7445 1.84249 17.8852C2.01119 17.9592 2.19314 17.9983 2.37736 18H10.5083C10.6925 17.9982 10.8745 17.9592 11.0432 17.8852C11.3728 17.7439 11.6354 17.4813 11.7767 17.1518C11.8506 16.9831 11.8896 16.8011 11.8914 16.6169V13.0587" stroke="#92ADB6" stroke-width="1.5" stroke-linecap="round" stroke-linejoin="round"/>
<path d="M18.3908 9.49609H7.54297" stroke="#92ADB6" stroke-width="1.5" stroke-linecap="round" stroke-linejoin="round"/>
<path d="M15.4336 6.92285L18.3938 9.49621" stroke="#92ADB6" stroke-width="1.5" stroke-linecap="round" stroke-linejoin="round"/>
<path d="M18.3938 9.49609L15.4336 12.0706" stroke="#92ADB6" stroke-width="1.5" stroke-linecap="round" stroke-linejoin="round"/>
</svg>
