<svg width="18" height="18" viewBox="0 0 18 18" fill="none" xmlns="http://www.w3.org/2000/svg">
<path d="M9.42183 17H2.56892C2.15281 17 1.75375 16.8347 1.45953 16.5405C1.1653 16.2462 1 15.8472 1 15.4311V2.56892C1 2.15281 1.1653 1.75375 1.45953 1.45953C1.75375 1.1653 2.15281 1 2.56892 1H9.42183C9.83793 1 10.237 1.1653 10.5312 1.45953C10.8255 1.75375 10.9907 2.15281 10.9907 2.56892V15.4311L11.0278 16.9778L9.42183 17Z" stroke="#92ADB6" stroke-width="1.5" stroke-linecap="round" stroke-linejoin="round"/>
<path d="M4.53125 4.69336V6.5065" stroke="#92ADB6" stroke-width="1.5" stroke-linecap="round" stroke-linejoin="round"/>
<path d="M4.53125 9.54785V11.3536" stroke="#92ADB6" stroke-width="1.5" stroke-linecap="round" stroke-linejoin="round"/>
<path d="M7.46094 4.69336V6.5065" stroke="#92ADB6" stroke-width="1.5" stroke-linecap="round" stroke-linejoin="round"/>
<path d="M7.46094 9.54785V11.3536" stroke="#92ADB6" stroke-width="1.5" stroke-linecap="round" stroke-linejoin="round"/>
<path d="M12.5611 16.9991H14.9071C15.3232 16.9991 15.7222 16.8338 16.0165 16.5396C16.3107 16.2453 16.476 15.8463 16.476 15.4302V7.81501C16.476 7.60898 16.4354 7.40496 16.3566 7.21461C16.2777 7.02426 16.1622 6.85131 16.0165 6.70562C15.8708 6.55993 15.6978 6.44437 15.5075 6.36552C15.3171 6.28667 15.1131 6.24609 14.9071 6.24609H12.5611C12.3551 6.24609 12.1511 6.28667 11.9607 6.36552C11.7704 6.44437 11.5974 6.55993 11.4517 6.70562C11.306 6.85131 11.1905 7.02426 11.1116 7.21461C11.0328 7.40496 10.9922 7.60898 10.9922 7.81501V15.4302L11.0292 16.9769L12.5611 16.9991Z" stroke="#92ADB6" stroke-width="1.5" stroke-linecap="round" stroke-linejoin="round"/>
<path d="M13.7305 9.54785V11.3536" stroke="#92ADB6" stroke-width="1.5" stroke-linecap="round" stroke-linejoin="round"/>
</svg>
