<svg width="18" height="18" viewBox="0 0 18 18" fill="none" xmlns="http://www.w3.org/2000/svg">
<path d="M7.99623 1H2.00376C1.4494 1 1 1.7986 1 2.78372V15.2163C1 16.2014 1.4494 17 2.00376 17H7.99623C8.5506 17 9 16.2014 9 15.2163V2.78372C9 1.7986 8.5506 1 7.99623 1Z" stroke="#92ADB6" stroke-width="1.5" stroke-miterlimit="10"/>
<path d="M15.9879 1H13.0121C12.4532 1 12 1.36106 12 1.80645V5.19355C12 5.63894 12.4532 6 13.0121 6H15.9879C16.5468 6 17 5.63894 17 5.19355V1.80645C17 1.36106 16.5468 1 15.9879 1Z" stroke="#92ADB6" stroke-width="1.5" stroke-miterlimit="10"/>
<path d="M15.9879 9H13.0121C12.4532 9 12 9.49199 12 10.0989V15.9011C12 16.508 12.4532 17 13.0121 17H15.9879C16.5468 17 17 16.508 17 15.9011V10.0989C17 9.49199 16.5468 9 15.9879 9Z" stroke="#92ADB6" stroke-width="1.5" stroke-miterlimit="10"/>
</svg>
