<svg width="26" height="18" viewBox="0 0 26 18" fill="none" xmlns="http://www.w3.org/2000/svg">
<path d="M2.97531 1.27637L6.18246 3.67444C6.42536 3.85779 6.5918 4.12458 6.64967 4.42337C6.70754 4.72216 6.65276 5.03179 6.49588 5.29259L3.61674 10.0158C3.45607 10.2759 3.20445 10.4669 2.91077 10.5518C2.6171 10.6367 2.30237 10.6093 2.02774 10.475L1 9.96482" stroke="#92ADB6" stroke-width="1.5" stroke-linecap="round" stroke-linejoin="round"/>
<path d="M12.7381 5.00855C12.4623 4.90439 12.1765 4.82868 11.8853 4.78259C11.3545 4.70731 10.8149 4.72209 10.289 4.82632C9.08354 5.01279 7.86405 5.09328 6.64453 5.06686" stroke="#92ADB6" stroke-width="1.5" stroke-linecap="round" stroke-linejoin="round"/>
<path d="M14.4453 9.79814L18.6146 12.8012C18.7301 12.8869 18.8621 12.9478 19.0022 12.9804C19.1423 13.0129 19.2876 13.0163 19.4291 12.9903C19.5706 12.9644 19.7052 12.9096 19.8247 12.8294C19.9441 12.7492 20.0458 12.6453 20.1234 12.5242L20.1598 12.4732C20.2346 12.336 20.2797 12.1847 20.2923 12.029C20.3048 11.8733 20.2845 11.7167 20.2327 11.5694C20.1694 11.3901 20.0585 11.2313 19.912 11.1102C19.4747 10.7311 17.3171 8.92346 14.3359 6.52539" stroke="#92ADB6" stroke-width="1.5" stroke-linecap="round" stroke-linejoin="round"/>
<path d="M13.3906 11.6914L17.108 14.381C17.3373 14.5351 17.6167 14.5961 17.8894 14.5514C18.162 14.5067 18.4074 14.3598 18.5756 14.1406C18.7437 13.9213 18.822 13.6463 18.7944 13.3713C18.7669 13.0964 18.6356 12.8424 18.4273 12.6608" stroke="#92ADB6" stroke-width="1.5" stroke-linecap="round" stroke-linejoin="round"/>
<path d="M12.3359 13.4707L15.6889 15.8105C15.8923 15.9211 16.1259 15.9639 16.3554 15.9324C16.5848 15.9009 16.7983 15.7969 16.9644 15.6355C17.3726 15.2055 17.0665 14.3818 17.0446 14.3308" stroke="#92ADB6" stroke-width="1.5" stroke-linecap="round" stroke-linejoin="round"/>
<path d="M15.0686 15.4089C15.1966 15.5996 15.2566 15.8279 15.2389 16.0569C15.2211 16.2859 15.1265 16.5022 14.9706 16.6709C14.8146 16.8395 14.6063 16.9505 14.3794 16.9861C14.1524 17.0216 13.9202 16.9796 13.7201 16.8667L10.5494 15.2413C9.60183 14.7456 9.41232 14.6582 8.39915 14.1042C6.56947 13.1008 4.85802 11.8954 3.29688 10.5107" stroke="#92ADB6" stroke-width="1.5" stroke-linecap="round" stroke-linejoin="round"/>
<path d="M22.7815 1L19.5744 3.56572C19.3443 3.75077 19.1887 4.01276 19.1365 4.30341C19.0843 4.59407 19.1388 4.89382 19.2901 5.14742L22.1401 9.94356C22.3028 10.2176 22.5665 10.4169 22.8745 10.4986C23.1825 10.5804 23.5102 10.5381 23.7874 10.3809L24.8152 9.79778" stroke="#92ADB6" stroke-width="1.5" stroke-linecap="round" stroke-linejoin="round"/>
<path d="M14.3373 6.52674C13.7687 6.91305 12.413 7.71484 11.101 7.25563C10.6782 7.11714 9.9639 6.75998 9.99305 6.41011C10.0222 6.06024 10.5106 5.97277 10.7948 5.87073C11.8224 5.50515 12.8015 5.0156 13.7104 4.41294C13.7964 4.35585 13.893 4.31674 13.9945 4.29795C14.0959 4.27916 14.2001 4.28108 14.3008 4.3036C14.607 4.37649 15.0297 4.47854 15.4379 4.62432C15.9562 4.8368 16.4898 5.00979 17.0342 5.14183C17.4103 5.16358 17.787 5.11034 18.1424 4.98521C18.4978 4.86008 18.8247 4.66555 19.1043 4.41294" stroke="#92ADB6" stroke-width="1.5" stroke-linecap="round" stroke-linejoin="round"/>
<path d="M22.0897 9.81934L20.2383 11.5541" stroke="#92ADB6" stroke-width="1.5" stroke-linecap="round" stroke-linejoin="round"/>
</svg>
